Coordinates
version=1
nRows=17
nColumns=36
inDegrees=yes

Units are S.I. units (second, meters, Newtons, ...)
If the header above contains a line with 'inDegrees', this indicates whether rotational values are in degrees (yes) or radians (no).

endheader
time	pelvis_tilt	pelvis_list	pelvis_rotation	pelvis_tx	pelvis_ty	pelvis_tz	hip_flexion_r	hip_adduction_r	hip_rotation_r	knee_angle_r	knee_angle_r_beta	ankle_angle_r	subtalar_angle_r	mtp_angle_r	hip_flexion_l	hip_adduction_l	hip_rotation_l	knee_angle_l	knee_angle_l_beta	ankle_angle_l	subtalar_angle_l	mtp_angle_l	lumbar_extension	lumbar_bending	lumbar_rotation	arm_flex_r	arm_add_r	arm_rot_r	elbow_flex_r	pro_sup_r	arm_flex_l	arm_add_l	arm_rot_l	elbow_flex_l	pro_sup_l
     14.96666670	     -2.37458527	      0.53227185	     -4.37492967	      0.75649323	      0.96886891	      0.85541607	     10.98602230	      0.85913175	      8.98097170	     16.51822726	      0.28829745	     12.01330492	      2.57881322	     -7.49999987	     21.51312775	     -4.66502919	     -1.93688250	     56.95770975	      0.99409957	     -1.04224153	    -14.45185941	     -7.49999987	    -18.76121968	      2.30293721	      3.71220421	     10.52553878	    -13.08269332	      1.00980226	     24.28907145	     84.69714657	     10.85443495	     -8.66653981	      6.37347712	     23.71927370	     79.26921597
     14.98333330	     -2.62059751	      0.93373354	     -4.10004107	      0.75395495	      0.96899692	      0.85668527	     10.51632870	      0.46261369	      8.57111716	     16.66796651	      0.29091090	     12.32806245	      2.73711892	     -7.49999987	     23.36535736	     -4.57564234	     -2.60205149	     54.61244305	      0.95316694	      0.59548330	    -14.15970938	     -7.49999987	    -18.89086748	      1.65966724	      4.35446725	     11.67849184	    -13.21460293	      1.31666868	     25.36005403	     84.42638705	     10.83784458	     -8.93665336	      6.15000031	     23.68316949	     78.95734719
     15.00000000	     -2.26304396	      1.20310910	     -3.93915896	      0.75135971	      0.97224826	      0.85612480	      9.37373772	      0.07332901	      7.98485043	     16.73014730	      0.29199615	     13.06233731	      3.73138508	     -7.49999987	     24.20443325	     -4.65093116	     -3.34825828	     51.59219412	      0.90045366	      1.75129064	    -13.43448202	     -7.49999987	    -19.85616660	      1.13868350	      5.11080975	     13.21200460	    -13.61662545	      2.31241899	     26.37511994	     82.98562566	     11.28834972	     -8.88235350	      5.56017072	     22.98252863	     77.51639071
     15.01666670	     -2.37256145	      1.41122805	     -3.74104130	      0.74941252	      0.97436215	      0.85510387	      8.60762503	     -0.20301167	      7.86353355	     16.57881404	      0.28935489	     13.42848811	      4.01047162	     -7.49999987	     25.36441457	     -4.89637666	     -4.04061117	     48.21657679	      0.84153802	      2.84894924	    -12.01486021	     -7.49999987	    -19.97249055	      0.75124605	      5.85828488	     14.68580029	    -14.47445552	      5.66654910	     26.57934983	     83.40861221	     11.64588379	     -8.74509171	      5.16564115	     21.72884438	     77.52947022
     15.03333330	     -2.06138258	      1.54107389	     -3.41755349	      0.74818990	      0.97315079	      0.85405886	      7.15855598	     -0.46918846	      7.65697295	     16.11980295	      0.28134364	     14.03743747	      4.65536951	     -7.49999987	     25.94435975	     -5.15557078	     -4.52118682	     44.53597140	      0.77729934	      3.29210295	    -10.94500794	     -7.49999987	    -20.64351916	      0.48229141	      6.07634856	     16.28692961	    -14.93500028	      7.46892491	     26.78923738	     84.77166638	     11.25532141	     -8.53438264	      2.53026452	     21.73050365	     80.55627743
     15.05000000	     -1.69040594	      1.55756416	     -2.97481870	      0.74719992	      0.96935926	      0.85311112	      5.47380035	     -0.59384735	      7.62473221	     15.48969264	      0.27034614	     14.73473223	      5.14384142	     -7.49999987	     26.45794929	     -5.54013872	     -4.84680848	     40.88952210	      0.71365679	      3.72050352	     -9.71737991	     -7.49999987	    -21.19441781	      0.26576509	      6.78852721	     17.19524891	    -15.38246428	      7.81508746	     27.01465280	     85.19116578	     11.22472190	     -8.27253649	      2.25548727	     20.83418814	     80.75135404
     15.06666670	     -1.37356617	      1.49975077	     -2.30817302	      0.74585398	      0.96499196	      0.85178619	      3.74171035	     -0.64079774	      7.50071083	     14.75251045	      0.25747988	     15.35446162	      5.33763630	     -7.49999987	     27.07981167	     -5.91400460	     -4.85052954	     37.30716570	      0.65113288	      4.02071460	     -8.68667825	     -7.49999987	    -21.56217146	      0.14426489	      7.31533598	     17.86876840	    -15.84984348	      8.15052540	     27.09582486	     85.63428917	     11.01359605	     -7.97469783	      1.94824309	     19.87537039	     80.95883729
     15.08333330	     -0.81547102	      1.33314690	     -1.63742895	      0.74308568	      0.96160600	      0.84986948	      1.79321492	     -0.57709243	      7.32602007	     14.07905523	      0.24572587	     16.11007854	      5.48585329	     -7.49999987	     27.48194422	     -6.43386356	     -4.94949352	     33.83910147	      0.59060374	      4.35166876	     -7.47961885	     -7.49999987	    -22.24693523	      0.22193408	      7.69376939	     18.45902795	    -16.42250469	      9.07058478	     27.84277291	     85.96984900	     10.77330050	     -7.57660564	      1.16227149	     19.15193710	     80.90685136
     15.10000000	     -0.60595252	      1.19209800	     -0.86488414	      0.73941039	      0.95729745	      0.84697818	      0.36559669	     -0.53968619	      6.97984302	     13.70089076	      0.23912565	     16.94996363	      5.26479610	     -7.49999987	     28.42327343	     -6.79940599	     -4.82568663	     30.76553187	      0.53695983	      4.35314686	     -6.79986764	     -7.49999987	    -22.39721100	      0.38735977	      7.68175379	     19.24762798	    -16.88019479	     10.82428255	     28.24077833	     85.52432119	     10.34097889	     -7.16365064	     -0.20230994	     18.57984677	     80.20056603
     15.11666670	     -0.30932454	      1.23807498	     -0.11937412	      0.73503082	      0.95441123	      0.84386683	     -1.01061586	     -0.72469355	      6.40776078	     13.57540855	      0.23693558	     18.09328701	      5.25797084	     -7.49999987	     29.36381488	     -6.87275860	     -4.67001634	     28.10021657	      0.49044130	      4.44992323	     -6.43755235	     -7.49999987	    -22.85299667	      0.38251501	      7.51214556	     20.07989059	    -17.08321143	     11.45146387	     29.07388099	     84.96890818	      9.92116581	     -7.00170414	     -0.73753882	     18.62233808	     79.60572986
     15.13333330	     -0.42860503	      1.36320582	      0.37599250	      0.73060856	      0.95326123	      0.84131208	     -1.77120204	     -0.93568065	      6.44351853	     13.63350593	      0.23794957	     19.12596704	      4.84002109	     -7.49999987	     30.81378648	     -6.86491588	     -4.58916557	     25.90310384	      0.45209445	      5.12404063	     -5.70343349	     -7.49999987	    -22.89879667	      0.27550409	      7.33387892	     20.96144430	    -17.34224367	     12.83735484	     29.80942086	     84.66998895	      9.56801937	     -6.89423210	     -1.50293536	     18.22222515	     79.10841871
     15.15000000	     -0.72622384	      1.70653804	      0.63967247	      0.72672715	      0.95192462	      0.83940256	     -2.15406675	     -1.37764901	      6.74150787	     13.91658807	      0.24289028	     20.17352272	      4.62060095	     -7.49999987	     32.48095376	     -6.55397226	     -4.42288660	     24.03754856	      0.41953437	      6.26046385	     -4.98703473	     -7.49999987	    -22.96455827	     -0.06832629	      6.53126490	     22.70582412	    -17.38027541	     16.34858658	     29.68507329	     83.36112582	      8.62514350	     -6.81057149	     -4.52074707	     18.57950405	     79.78546625
     15.16666670	     -1.04285094	      2.31940941	      0.75607772	      0.72332655	      0.94850106	      0.83801811	     -2.45317100	     -2.05091299	      7.39853760	     14.34961023	      0.25044794	     21.11144961	      4.40639339	     -7.49999987	     34.16254508	     -5.89197513	     -4.14117933	     22.53546916	      0.39331814	      7.73795859	     -4.10517525	     -7.49999987	    -23.13925318	     -0.86116645	      6.56700487	     23.34321076	    -17.44784175	     16.43717012	     30.57177969	     82.52820456	      8.35641489	     -6.89836404	     -4.96136456	     18.44624636	     78.90591096
     15.18333330	     -1.62094104	      2.97798158	      0.84733988	      0.71915076	      0.94297418	      0.83633198	     -2.41583665	     -2.76049816	      7.93824814	     15.06258719	      0.26289174	     22.08160779	      4.65934357	     -7.49999987	     36.24447860	     -5.15825522	     -3.81078704	     21.79804746	      0.38044770	      9.56611799	     -2.77695423	     -7.49999987	    -22.94007579	     -1.71182648	      6.30361585	     24.47646891	    -17.25815086	     17.55726210	     30.37153677	     82.80684441	      8.19263092	     -7.00492277	     -6.17090709	     17.65642869	     78.82153792
     15.20000000	     -2.07228320	      3.71703708	      0.89612617	      0.71479017	      0.93780705	      0.83419641	     -2.66381445	     -3.51920331	      8.76950108	     15.68809824	      0.27380897	     22.58051767	      4.43719128	     -7.49999987	     38.11806002	     -4.30652001	     -3.30488521	     21.72676002	      0.37920350	     11.02403077	     -1.94437659	     -7.49999987	    -22.95393461	     -2.71305638	      5.68986826	     26.16069395	    -16.85666339	     19.63846473	     29.68696973	     83.13879645	      7.91425222	     -7.22686443	     -8.23316009	     17.61662966	     78.94670358
     15.21666670	     -2.41274564	      4.43707332	      1.10826377	      0.71308767	      0.93365330	      0.83146642	     -3.38436343	     -4.29127899	      9.41372916	     15.93759355	      0.27816348	     22.64797821	      4.28389498	     -7.49999987	     39.66918816	     -3.28270394	     -2.49973413	     22.22883061	      0.38796628	     11.89348456	     -1.73692247	     -7.49999987	    -23.06251901	     -3.79456124	      5.77981221	     26.87278791	    -16.74627338	     19.66399209	     29.86997830	     83.08033488	      8.17168091	     -7.52724966	     -8.35710105	     17.62685880	     78.92138477
     15.23333330	     -2.76308249	      5.11445865	      1.48030290	      0.71479853	      0.92944594	      0.82839367	     -4.60187625	     -5.07397171	      9.99163022	     15.55933900	      0.27156169	     22.19330298	      3.87658110	     -7.49999987	     40.84077163	     -2.14202423	     -1.90737910	     23.09550340	      0.40309258	     12.37825273	     -1.50769501	     -7.49999987	    -22.96489144	     -4.88662524	      5.87864734	     27.32109429	    -16.59291045	     19.73037865	     29.86429769	     83.03325329	      8.44845196	     -7.84615660	     -8.51289554	     17.49993628	     78.89425878
